HIERARCHY
ROOT hips
{
  OFFSET 0 10.6860622 2.3727825e-15
  CHANNELS 6 Xposition Yposition Zposition Yrotation Xrotation Zrotation
  JOINT leftUpperLeg
  {
    OFFSET 0.6642549969 -0.9402397400000004 0
    CHANNELS 3 Yrotation Xrotation Zrotation
    JOINT leftLowerLeg
    {
      OFFSET 0 -3.997221335632195 0
      CHANNELS 3 Yrotation Xrotation Zrotation
      JOINT leftFoot
      {
        OFFSET -0.13777839790000004 -4.6145792000000005 -0.22186036399999998
        CHANNELS 3 Yrotation Xrotation Zrotation
        JOINT leftToes
        {
          OFFSET -0.03777410834999995 -0.9130806927000008 0.85230013
          CHANNELS 3 Yrotation Xrotation Zrotation
          End Site
          {
            OFFSET -0.03777410834999995 -0.9130806927000008 0.85230013
          }
        }
      }
    }
  }
  JOINT rightUpperLeg
  {
    OFFSET -0.6642778626 -0.9402397400000004 0
    CHANNELS 3 Yrotation Xrotation Zrotation
    JOINT rightLowerLeg
    {
      OFFSET 0 -3.997221452859387 0
      CHANNELS 3 Yrotation Xrotation Zrotation
      JOINT rightFoot
      {
        OFFSET 0.1377926176 -4.6145792000000005 -0.22185782299999995
        CHANNELS 3 Yrotation Xrotation Zrotation
        JOINT rightToes
        {
          OFFSET 0.037780746850000047 -0.9130806927000008 0.85230167
          CHANNELS 3 Yrotation Xrotation Zrotation
          End Site
          {
            OFFSET 0.037780746850000047 -0.9130806927000008 0.85230167
          }
        }
      }
    }
  }
  JOINT spine
  {
    OFFSET 0 0.13988381660000015 0
    CHANNELS 3 Yrotation Xrotation Zrotation
    JOINT chest
    {
      OFFSET 0 0.6191039003973773 0
      CHANNELS 3 Yrotation Xrotation Zrotation
      JOINT upperChest
      {
        OFFSET 0 0.9855186130586943 0
        CHANNELS 3 Yrotation Xrotation Zrotation
        JOINT leftShoulder
        {
          OFFSET 0.1807663869 1.5087829790000005 0
          CHANNELS 3 Yrotation Xrotation Zrotation
          JOINT leftUpperArm
          {
            OFFSET 0.5985063006419806 0 0
            CHANNELS 3 Yrotation Xrotation Zrotation
            JOINT leftLowerArm
            {
              OFFSET 2.2993332369501065 0 0
              CHANNELS 3 Yrotation Xrotation Zrotation
              JOINT leftHand
              {
                OFFSET 2.395047042602395 0 0
                CHANNELS 3 Yrotation Xrotation Zrotation
                JOINT leftIndexProximal
                {
                  OFFSET 0.5766295810000004 0.04556643899499946 0.17265095988184
                  CHANNELS 3 Yrotation Xrotation Zrotation
                  JOINT leftIndexIntermediate
                  {
                    OFFSET 0.2957229000000008 -0.019352197700001517 -0.007932640616999987
                    CHANNELS 3 Yrotation Xrotation Zrotation
                    JOINT leftIndexDistal
                    {
                      OFFSET 0.19008243099999922 -0.012484908149998475 -0.002786250786000012
                      CHANNELS 3 Yrotation Xrotation Zrotation
                      End Site
                      {
                        OFFSET 0.19008243099999922 -0.012484908149998475 -0.002786250786000012
                      }
                    }
                  }
                }
                JOINT leftMiddleProximal
                {
                  OFFSET 0.5834975091000001 0.0524350405149987 0.02204081888183999
                  CHANNELS 3 Yrotation Xrotation Zrotation
                  JOINT leftMiddleIntermediate
                  {
                    OFFSET 0.33880573540000003 -0.019871473270000717 -0.00000971183179999946
                    CHANNELS 3 Yrotation Xrotation Zrotation
                    JOINT leftMiddleDistal
                    {
                      OFFSET 0.20676022730000088 -0.012221336379999448 0.0001471936708000235
                      CHANNELS 3 Yrotation Xrotation Zrotation
                      End Site
                      {
                        OFFSET 0.20676022730000088 -0.012221336379999448 0.0001471936708000235
                      }
                    }
                  }
                }
                JOINT leftLittleProximal
                {
                  OFFSET 0.5344154683999995 -0.012880921405001189 -0.24414037221816004
                  CHANNELS 3 Yrotation Xrotation Zrotation
                  JOINT leftLittleIntermediate
                  {
                    OFFSET 0.21758961730000093 -0.011650919939999227 0.011893592810000034
                    CHANNELS 3 Yrotation Xrotation Zrotation
                    JOINT leftLittleDistal
                    {
                      OFFSET 0.1475273964999999 -0.008152365682999818 0.006001092492999946
                      CHANNELS 3 Yrotation Xrotation Zrotation
                      End Site
                      {
                        OFFSET 0.1475273964999999 -0.008152365682999818 0.006001092492999946
                      }
                    }
                  }
                }
                JOINT leftRingProximal
                {
                  OFFSET 0.5799399463000003 0.026911854694997794 -0.12150566991816003
                  CHANNELS 3 Yrotation Xrotation Zrotation
                  JOINT leftRingIntermediate
                  {
                    OFFSET 0.26167887460000006 -0.013480186499999602 0.010996293000000053
                    CHANNELS 3 Yrotation Xrotation Zrotation
                    JOINT leftRingDistal
                    {
                      OFFSET 0.17667108799999987 -0.008990287899999228 0.0055541023999999065
                      CHANNELS 3 Yrotation Xrotation Zrotation
                      End Site
                      {
                        OFFSET 0.17667108799999987 -0.008990287899999228 0.0055541023999999065
                      }
                    }
                  }
                }
                JOINT leftThumbProximal
                {
                  OFFSET 0.11018806699999972 -0.09448718900500053 0.17047963138184
                  CHANNELS 3 Yrotation Xrotation Zrotation
                  JOINT leftThumbIntermediate
                  {
                    OFFSET 0.31062601459999983 -0.08126270900000132 0.15443142000000007
                    CHANNELS 3 Yrotation Xrotation Zrotation
                    JOINT leftThumbDistal
                    {
                      OFFSET 0.21627175790000086 -0.08833193599999878 0.018771167799999988
                      CHANNELS 3 Yrotation Xrotation Zrotation
                      End Site
                      {
                        OFFSET 0.21627175790000086 -0.08833193599999878 0.018771167799999988
                      }
                    }
                  }
                }
              }
            }
          }
        }
        JOINT neck
        {
          OFFSET 0 1.5463305265074576 0
          CHANNELS 3 Yrotation Xrotation Zrotation
          JOINT head
          {
            OFFSET 0 0.8456443600000344 0
            CHANNELS 3 Yrotation Xrotation Zrotation
            JOINT leftEye
            {
              OFFSET 0.30408573140000006 0.5104519199999995 0.1276382305
              CHANNELS 3 Yrotation Xrotation Zrotation
              End Site
              {
                OFFSET 0.30408573140000006 0.5104519199999995 0.1276382305
              }
            }
            JOINT rightEye
            {
              OFFSET -0.30409491089999996 0.5104519199999995 0.1276379445
              CHANNELS 3 Yrotation Xrotation Zrotation
              End Site
              {
                OFFSET -0.30409491089999996 0.5104519199999995 0.1276379445
              }
            }
            JOINT jaw
            {
              OFFSET -3.155239131000001e-7 -0.11984121820000082 0.60178107
              CHANNELS 3 Yrotation Xrotation Zrotation
              End Site
              {
                OFFSET -3.155239131000001e-7 -0.11984121820000082 0.60178107
              }
            }
          }
        }
        JOINT rightShoulder
        {
          OFFSET -0.1807303465 1.5087829790000005 0
          CHANNELS 3 Yrotation Xrotation Zrotation
          JOINT rightUpperArm
          {
            OFFSET -0.5985063796536958 0 0
            CHANNELS 3 Yrotation Xrotation Zrotation
            JOINT rightLowerArm
            {
              OFFSET -2.2993322059002854 0 0
              CHANNELS 3 Yrotation Xrotation Zrotation
              JOINT rightHand
              {
                OFFSET -2.395045314457259 0 0
                CHANNELS 3 Yrotation Xrotation Zrotation
                JOINT rightIndexProximal
                {
                  OFFSET -0.5764487688300002 0.0441371204405987 0.17361932004999997
                  CHANNELS 3 Yrotation Xrotation Zrotation
                  JOINT rightIndexIntermediate
                  {
                    OFFSET -0.29573011380000047 -0.01934826376999843 -0.007698921482999974
                    CHANNELS 3 Yrotation Xrotation Zrotation
                    JOINT rightIndexDistal
                    {
                      OFFSET -0.19008373999999884 -0.012503266380000655 -0.0026365778999999897
                      CHANNELS 3 Yrotation Xrotation Zrotation
                      End Site
                      {
                        OFFSET -0.19008373999999884 -0.012503266380000655 -0.0026365778999999897
                      }
                    }
                  }
                }
                JOINT rightMiddleProximal
                {
                  OFFSET -0.5834852037300005 0.05211639405060153 0.02307162440000001
                  CHANNELS 3 Yrotation Xrotation Zrotation
                  JOINT rightMiddleIntermediate
                  {
                    OFFSET -0.33880114510000003 -0.019952774050000954 0.0002455003561999819
                    CHANNELS 3 Yrotation Xrotation Zrotation
                    JOINT rightMiddleDistal
                    {
                      OFFSET -0.20675694929999955 -0.012273788999999091 0.00030209124000002766
                      CHANNELS 3 Yrotation Xrotation Zrotation
                      End Site
                      {
                        OFFSET -0.20675694929999955 -0.012273788999999091 0.00030209124000002766
                      }
                    }
                  }
                }
                JOINT rightLittleProximal
                {
                  OFFSET -0.5346811737299992 -0.011214256288399227 -0.24363941305000003
                  CHANNELS 3 Yrotation Xrotation Zrotation
                  JOINT rightLittleIntermediate
                  {
                    OFFSET -0.21757715980000092 -0.011771559690000988 0.01201554387
                    CHANNELS 3 Yrotation Xrotation Zrotation
                    JOINT rightLittleDistal
                    {
                      OFFSET -0.1475201849000004 -0.00822055339600003 0.006082065407000015
                      CHANNELS 3 Yrotation Xrotation Zrotation
                      End Site
                      {
                        OFFSET -0.1475201849000004 -0.00822055339600003 0.006082065407000015
                      }
                    }
                  }
                }
                JOINT rightRingProximal
                {
                  OFFSET -0.5800810755299999 0.027657985680600072 -0.12066365025000003
                  CHANNELS 3 Yrotation Xrotation Zrotation
                  JOINT rightRingIntermediate
                  {
                    OFFSET -0.26166445029999974 -0.013623118409999302 0.011164098990000045
                    CHANNELS 3 Yrotation Xrotation Zrotation
                    JOINT rightRingDistal
                    {
                      OFFSET -0.17666387530000027 -0.009072900100000503 0.005668185599999959
                      CHANNELS 3 Yrotation Xrotation Zrotation
                      End Site
                      {
                        OFFSET -0.17666387530000027 -0.009072900100000503 0.005668185599999959
                      }
                    }
                  }
                }
                JOINT rightThumbProximal
                {
                  OFFSET -0.10997596379000074 -0.09577489355940072 0.16989765924999997
                  CHANNELS 3 Yrotation Xrotation Zrotation
                  JOINT rightThumbIntermediate
                  {
                    OFFSET -0.31036620999999986 -0.08229339117999834 0.15440884469999996
                    CHANNELS 3 Yrotation Xrotation Zrotation
                    JOINT rightThumbDistal
                    {
                      OFFSET -0.21631306399999906 -0.08825326400000111 0.018656797720000014
                      CHANNELS 3 Yrotation Xrotation Zrotation
                      End Site
                      {
                        OFFSET -0.21631306399999906 -0.08825326400000111 0.018656797720000014
                      }
                    }
                  }
                }
              }
            }
          }
        }
      }
    }
  }
}
MOTION
Frames: 7
Frame Time: 0.03333333333333333
0 11.682712981546562 0 0 0 0 0 0 -5.826343164929014 -0.3712483961610101 -3.6333298826370974 5.838118207697276 0 0 0 0 0 0 0 0 5.826343164929014 0.3712483961610101 -3.6333298826370974 -5.838118207697276 0 0 0 0 0 0 0 -4.610651315171937 0 0 3.0831277533083026 0 0 0 0 0 1.5275236235667615 0 0 0 0 0 0 0 0 0 0 0 0 0 0 0 0 0 0 0 0 0 0 0 0 0 0 0 0 0 0 0 0 0 0 0 0 0 0 0 0 0 0 0 0 0 0 0 0 0 0 0 0 0 0 0 0 1.5275236235667615 0 0 0 0 0 0 0 0 0 0 0 0 0 0 1.5275236235667615 0 0 0 0 0 0 0 0 0 0 0 0 0 0 0 0 0 0 0 0 0 0 0 0 0 0 0 0 0 0 0 0 0 0 0 0 0 0 0 0 0 0 0 0 0 0 0 0 0 0 0 0 0 0 0
0 -7.033921315365206 0 -90.40133499766667 89.73312138885133 89.3438999499025 176.93638451309548 -54.26620628762806 -160.65338647870988 -123.93197036775967 27.615977696067155 -138.35116567142111 14.390981617455566 35.584608960684854 17.34417215412994 0 0 0 -176.94642446889105 -54.27374448634507 160.63742251090804 123.96867059758911 27.60161987030473 138.3758279622013 -14.000379646738248 43.23408858363231 -15.818970631225124 0 0 0 -1.2882204571756637 -14.473833456834878 -1.8471764990687438 1.1755854311978704 -25.49704058683778 -6.32047248840315 0 0 0 16.881264393418345 -0.008934766257134769 -37.553811182005774 -45.137581747556844 9.841898971870702 -17.739912744492706 -43.91796022844736 54.883429782269495 29.6346555962578 8.938696978717173 -52.168082357974065 -11.273164152380732 0 0 0 0 0 0 0 0 0 0 0 0 0 0 0 0 0 0 0 0 0 0 0 0 0 0 0 0 0 0 0 0 0 0 0 0 0 0 0 0 0 0 0 0 0 0 1.651669663803764 0 0 0.033225000177304655 0 0 0 0 0 0 0 0 0 0 21.0990832472964 -1.4454189906562793 17.571829205108536 51.22522575294031 5.663229972477568 1.8955824323804227 6.835589763616157 -0.030748759397350035 0.5149160795036073 6.755339060414149 -37.76915116220483 -19.03960776308481 0 0 0 0 0 0 0 0 0 0 0 0 0 0 0 0 0 0 0 0 0 0 0 0 0 0 0 0 0 0 0 0 0 0 0 0 0 0 0 0 0 0 0 0 0
0 -7.033921315365206 0 -90.40133499766667 89.73312138885133 89.3438999499025 176.93638451309548 -54.26620628762806 -160.65338647870988 -123.93197036775967 27.615977696067155 -138.35116567142111 14.390981617455566 35.584608960684854 17.34417215412994 0 0 0 -176.94642446889105 -54.27374448634507 160.63742251090804 123.96867059758911 27.60161987030473 138.3758279622013 -14.000379646738248 43.23408858363231 -15.818970631225124 0 0 0 -1.2882204571756637 -14.473833456834878 -1.8471764990687438 1.1755854311978704 -25.49704058683778 -6.32047248840315 0 0 0 16.881264393418345 -0.008934766257134769 -37.553811182005774 -45.025582856045375 9.877317530881342 -17.835465391527144 -44.33437016550464 54.811640650503264 29.377915134097513 8.700289123042284 -52.04079137025939 -10.882117023137877 0 0 0 0 0 0 0 0 0 0 0 0 0 0 0 0 0 0 0 0 0 0 0 0 0 0 0 0 0 0 0 0 0 0 0 0 0 0 0 0 0 0 0 0 0 0.029715667525477826 1.7864249812702608 -0.12913744237109542 0 0.10811949745951302 0 0 0 0 0 0 0 0 0 0 21.0990832472964 -1.4454189906562793 17.571829205108536 51.09437475918041 5.451478409552934 2.074778463544061 7.169329415601651 0.02872905084327236 0.45464307556764594 6.87079444073737 -37.751332265989575 -19.228139718020174 0 0 0 0 0 0 0 0 0 0 0 0 0 0 0 0 0 0 0 0 0 0 0 0 0 0 0 0 0 0 0 0 0 0 0 0 0 0 0 0 0 0 0 0 0
0 -7.033921315365206 0 -90.40133499766667 89.73312138885133 89.3438999499025 176.93638451309548 -54.26620628762806 -160.65338647870988 -123.93197036775967 27.615977696067155 -138.35116567142111 14.390981617455566 35.584608960684854 17.34417215412994 0 0 0 -176.94642446889105 -54.27374448634507 160.63742251090804 123.96867059758911 27.60161987030473 138.3758279622013 -14.000379646738248 43.23408858363231 -15.818970631225124 0 0 0 -1.2882204571756637 -14.473833456834878 -1.8471764990687438 1.1755854311978704 -25.49704058683778 -6.32047248840315 0 0 0 16.881264393418345 -0.008935559166067834 -37.553811182005774 -44.91363100055909 9.912919312195747 -17.930958570430896 -44.74947417100182 54.73877797762366 29.122543504288885 8.463973173201909 -51.91251099107519 -10.493045115381095 0 0 0 0 0 0 0 0 0 0 0 0 0 0 0 0 0 0 0 0 0 0 0 0 0 0 0 0 0 0 0 0 0 0 0 0 0 0 0 0 0 0 0 0 0 0.05912962687408577 1.9212469922616597 -0.258214781298513 0 0.18301400272279464 0 0 0 0 0 0 0 0 0 0 21.0990832472964 -1.4454189906562793 17.571829205108536 50.962908459575964 5.240135875176224 2.2543979070194293 7.503006997568757 0.08855689963359958 0.39471747394575896 6.9861465990724145 -37.733215388270274 -19.416580111694913 0 0 0 0 0 0 0 0 0 0 0 0 0 0 0 0 0 0 0 0 0 0 0 0 0 0 0 0 0 0 0 0 0 0 0 0 0 0 0 0 0 0 0 0 0
0 -7.033921315365206 0 -90.40133499766667 89.73312138885133 89.3438999499025 176.93638287081876 -54.26620628762806 -160.6533850993694 -123.93196341959073 27.615971914789597 -138.35116279145103 14.390981617455566 35.584608960684854 17.34417215412994 0 0 0 -176.94642446889105 -54.27374448634507 160.63742251090804 123.96867059758911 27.60161987030473 138.3758279622013 -14.000379646738248 43.23408858363231 -15.818970631225124 0 0 0 -1.2882204571756637 -14.473833456834878 -1.8471764990687438 1.1755854311978704 -25.49704058683778 -6.32047248840315 0 0 0 16.881264393418345 -0.008934766257134769 -37.553811182005774 -44.68968152498578 9.984740454340516 -18.121950098256235 -45.57792879483008 54.58947160642912 28.614610321644616 7.996182187320408 -51.652198635342664 -9.718444094859858 0 0 0 0 0 0 0 0 0 0 0 0 0 0 0 0 0 0 0 0 0 0 0 0 0 0 0 0 0 0 0 0 0 0 0 0 0 0 0 0 0 0 0 0 0 0.1171108093996513 2.191364134515931 -0.5164580722173644 0 0.33282599769763455 0 0 0 0 0 0 0 0 0 0 21.0990832472964 -1.4454189906562793 17.571829205108536 50.69707186663934 4.817028249957496 2.616351498113261 8.173461642383279 0.20985257528857704 0.2753358320036206 7.2167279759310174 -37.69605403122131 -19.79349311541115 0 0 0 0 0 0 0 0 0 0 0 0 0 0 0 0 0 0 0 0 0 0 0 0 0 0 0 0 0 0 0 0 0 0 0 0 0 0 0 0 0 0 0 0 0
0 -7.033921315365206 0 -90.40133499766667 89.73312138885133 89.3438999499025 176.93638287081876 -54.26620628762806 -160.6533850993694 -123.9319650185013 27.61597384188208 -138.35116279145103 14.390981617455566 35.584608960684854 17.34417215412994 0 0 0 -176.94642673459322 -54.27373863771234 160.6374250096199 123.96866899957742 27.601617943464717 138.3758279622013 -14.000381917816878 43.234093271082884 -15.818973036500383 0 0 0 -1.2882203469836448 -14.473833456834878 -1.8471769397191613 1.1755854311978704 -25.497042478631574 -6.32047248840315 0 0 0 16.881264393418345 -0.008934766257134769 -37.553811182005774 -44.57766273138905 10.020965181215225 -18.217445694580352 -45.99122922648974 54.51302312038481 28.36208348967142 7.764735113078207 -51.52019233261242 -9.33294223489831 0 0 0 0 0 0 0 0 0 0 0 0 0 0 0 0 0 0 0 0 0 0 0 0 0 0 0 0 0 0 0 0 0 0 0 0 0 0 0 0 0 0 0 0 0 0.14567685063633778 2.326654972513105 -0.6456237456053162 0 0.40774351027960887 0 0 0 0 0 0 0 0 0 0 21.0990832472964 -1.4454189906562793 17.571829205108536 50.56268099249569 4.605280795375949 2.798692947998699 8.510223390526924 0.27132003351981865 0.21589225511152585 7.331947344721005 -37.67700569810426 -19.981953583972317 0 0 0 0 0 0 0 0 0 0 0 0 0 0 0 0 0 0 0 0 0 0 0 0 0 0 0 0 0 0 0 0 0 0 0 0 0 0 0 0 0 0 0 0 0
0 -7.033921315365206 0 -90.40133499766667 89.73312138885133 89.3438999499025 176.93638451309548 -54.26620628762806 -160.65338647870988 -123.93197036775967 27.615977696067155 -138.35116567142111 14.390981617455566 35.584608960684854 17.34417215412994 0 0 0 -176.94642900029447 -54.273726940449365 160.63742418978947 123.96866899957742 27.601617943464717 138.3758279622013 -14.000381917816878 43.234097958533816 -15.818975441775995 0 0 0 -1.2882203469836448 -14.473834338593894 -1.847177380369579 1.1755854311978704 -25.497042478631574 -6.32047248840315 0 0 0 16.881264393418345 -0.008935559166067834 -37.553811182005774 -44.4656928250719 10.057374311894224 -18.312879615064585 -46.40317087736808 54.43552546602284 28.11098962370585 7.535385789574869 -51.38722678704319 -8.949416843592216 0 0 0 0 0 0 0 0 0 0 0 0 0 0 0 0 0 0 0 0 0 0 0 0 0 0 0 0 0 0 0 0 0 0 0 0 0 0 0 0 0 0 0 0 0 0.17394037085727612 2.4620098515223012 -0.7747346439580141 0 0.4826610262861569 0 0 0 0 0 0 0 0 0 0 21.0990832472964 -1.4454189906562793 17.571829205108536 50.42765280288734 4.393961137341988 2.9814790352190643 8.846923675328474 0.33313576267978257 0.15681064555003876 7.4470568244951485 -37.6576559767995 -20.170314147308794 0 0 0 0 0 0 0 0 0 0 0 0 0 0 0 0 0 0 0 0 0 0 0 0 0 0 0 0 0 0 0 0 0 0 0 0 0 0 0 0 0 0 0 0 0
